HIERARCHY
ROOT hip
{
	OFFSET 0.000000 0.000000 0.000000 
	CHANNELS 6 Xposition Yposition Zposition Xrotation Zrotation Yrotation
	JOINT abdomen
	{
		OFFSET 0.000000 3.402643 0.000000 
		CHANNELS 3 Xrotation Zrotation Yrotation
		JOINT chest
		{
			OFFSET 0.000000 8.438565 -0.680529 
			CHANNELS 3 Xrotation Zrotation Yrotation
			JOINT neck
			{
				OFFSET 0.000000 10.207942 -0.272212 
				CHANNELS 3 Xrotation Zrotation Yrotation
				JOINT head
				{
					OFFSET 0.000000 3.130431 0.000000 
					CHANNELS 3 Xrotation Zrotation Yrotation
					End Site
					{
						OFFSET 0.000000 3.130435 0.000000 
					}
				}
			}
			JOINT lCollar
			{
				OFFSET 3.470700 6.669187 -0.816635 
				CHANNELS 3 Yrotation Zrotation Xrotation
				JOINT lShldr
				{
					OFFSET 3.198488 0.000000 0.000000 
					CHANNELS 3 Zrotation Yrotation Xrotation
					JOINT lForeArm
					{
						OFFSET 10.139888 0.000000 0.000000 
						CHANNELS 3 Yrotation Zrotation Xrotation
						JOINT lHand
						{
							OFFSET 8.370511 0.000000 0.000000 
							CHANNELS 3 Zrotation Yrotation Xrotation
							End Site
							{
								OFFSET 4.083176 0.000000 0.000000 
							}
						}
					}
				}
			}
			JOINT rCollar
			{
				OFFSET -3.470700 6.669187 -0.816635 
				CHANNELS 3 Yrotation Zrotation Xrotation
				JOINT rShldr
				{
					OFFSET -3.198488 0.000000 0.000000 
					CHANNELS 3 Zrotation Yrotation Xrotation
					JOINT rForeArm
					{
						OFFSET -10.139888 0.000000 0.000000 
						CHANNELS 3 Yrotation Zrotation Xrotation
						JOINT rHand
						{
							OFFSET -8.370511 0.000000 0.000000 
							CHANNELS 3 Zrotation Yrotation Xrotation
							End Site
							{
								OFFSET -4.083176 0.000000 0.000000 
							}
						}
					}
				}
			}
		}
	}
	JOINT lThigh
	{
		OFFSET 5.308129 -1.633274 1.361059 
		CHANNELS 3 Xrotation Zrotation Yrotation
		JOINT lShin
		{
			OFFSET -2.041588 -20.007561 0.000000 
			CHANNELS 3 Xrotation Zrotation Yrotation
			JOINT lFoot
			{
				OFFSET 0.000000 -19.190928 -1.224953 
				CHANNELS 3 Xrotation Yrotation Zrotation
				End Site
				{
					OFFSET 0.000000 -2.449906 4.627600 
				}
			}
		}
	}
	JOINT rThigh
	{
		OFFSET -5.308129 -1.633274 1.361059 
		CHANNELS 3 Xrotation Zrotation Yrotation
		JOINT rShin
		{
			OFFSET 2.041588 -20.007561 0.000000 
			CHANNELS 3 Xrotation Zrotation Yrotation
			JOINT rFoot
			{
				OFFSET 0.000000 -19.190928 -1.224953 
				CHANNELS 3 Xrotation Yrotation Zrotation
				End Site
				{
					OFFSET 0.000000 -2.449906 4.627600 
				}
			}
		}
	}
}
MOTION
Frames: 20
Frame Time: 0.016667
0.026401 44.578041 0.050787 1.734560 -4.782970 11.026900 -20.998100 3.501410 1.271670 14.974000 2.760300 0.980612 18.989550 -7.259393 -16.449301 14.403000 12.656200 -4.232910 2.000000 -2.000000 0.000000 86.490196 166.376007 0.172881 35.615601 -0.325991 0.079674 0.064143 -0.055055 -156.990005 -2.000000 2.000000 0.000000 -150.199005 147.029007 -5.036610 -44.580502 0.312227 0.095966 -0.062849 -0.041626 -118.239998 -6.013983 1.703477 -2.419744 17.611462 3.442297 1.230237 -9.958139 -7.000068 -1.716222 -1.518804 8.356936 -5.296732 10.033263 -2.189172 -1.010188 -8.415742 -13.519303 -3.551715 
0.047476 44.575851 0.070421 1.754010 -4.724360 10.861000 -21.048300 3.555220 1.248420 14.924800 2.818380 0.972524 18.979551 -7.489324 -16.264582 14.433400 12.664600 -4.146650 2.000000 -2.000000 0.000000 86.519302 166.044006 0.445548 35.390999 -0.326303 0.079238 0.064114 -0.054978 -156.960999 -2.000000 2.000000 0.000000 -149.936996 147.386002 -6.892960 -45.859798 0.310061 0.098117 -0.060385 -0.033659 -121.219002 -5.943819 1.645935 -2.257967 17.624020 3.432774 1.248190 -9.952156 -7.059697 -1.734572 -1.595722 8.268407 -5.312302 10.273534 -2.234866 -1.018785 -8.545410 -13.386211 -3.518596 
0.048295 44.579842 0.088630 1.744230 -4.734140 10.832200 -21.118099 3.624610 1.238910 14.846100 2.924890 0.977553 18.943880 -7.735361 -16.202818 14.481800 12.624100 -4.133090 2.000000 -2.000000 0.000000 86.558296 165.964996 0.650445 34.990601 -0.326853 0.078457 0.063734 -0.053924 -156.559998 -2.000000 2.000000 0.000000 30.550699 32.629799 170.606995 -47.393002 0.307402 0.100629 -0.056999 -0.019010 -126.589996 -5.961033 1.676962 -2.315496 17.683500 3.433813 1.247766 -9.896432 -7.061406 -1.709562 -1.685022 8.298388 -5.362168 10.453537 -2.278364 -1.008666 -8.574527 -13.372481 -3.473018 
0.049115 44.583694 0.106837 1.744260 -4.743910 10.802700 -21.188200 3.706470 1.234880 14.757500 3.021600 0.982759 18.888540 -7.987894 -16.145826 14.520100 12.584000 -4.111950 2.000000 -2.000000 0.000000 86.607101 165.886993 0.855341 34.590199 -0.327398 0.077673 0.063352 -0.052841 -156.149994 -2.000000 2.000000 0.000000 31.037800 32.665001 168.117004 -48.916500 0.304694 0.103054 -0.054996 -0.004081 -131.970993 -5.949700 1.698132 -2.364960 17.750013 3.450324 1.249598 -9.883546 -7.059002 -1.718653 -1.700971 8.316492 -5.402988 10.495079 -2.274752 -1.027067 -8.543849 -13.361708 -3.451144 
0.058821 44.574574 0.137619 1.636310 -4.675840 10.969700 -21.130899 3.762240 1.216710 14.893700 3.168090 0.975556 18.822691 -8.067813 -16.122683 14.508400 12.546000 -4.121010 2.000000 -2.000000 0.000000 86.568199 166.149994 0.953608 34.238602 -0.327872 0.076981 0.063092 -0.052091 -155.867004 -2.000000 2.000000 0.000000 31.544001 33.122501 164.533997 -50.283699 0.302209 0.105169 -0.054402 0.001094 -137.311996 -5.812772 1.625164 -2.540129 17.828716 3.457072 1.259603 -9.951216 -7.179169 -1.770860 -1.518558 8.236355 -5.673702 10.469011 -2.256526 -1.026454 -8.580769 -13.271207 -3.488933 
0.068527 44.565575 0.168399 1.528360 -4.597980 11.136800 -21.063801 3.814820 1.190000 15.029800 3.314630 0.969050 18.744192 -8.132607 -16.080534 14.497200 12.517600 -4.128320 2.000000 -2.000000 0.000000 86.529297 166.404007 1.051850 33.887100 -0.328342 0.076286 0.062828 -0.051315 -155.574005 -2.000000 2.000000 0.000000 32.010502 33.609200 160.936005 -51.641102 0.299694 0.107209 -0.055202 0.016026 -142.654007 -5.693851 1.555785 -2.704609 17.886139 3.466868 1.250800 -9.985749 -7.317640 -1.807329 -1.482552 8.189313 -5.943876 10.726912 -2.315140 -1.045468 -8.751390 -13.182275 -3.459682 
0.078234 44.552082 0.212038 1.401070 -4.637290 11.439000 -21.072901 3.806690 1.223940 15.088900 3.246910 0.988697 18.710943 -8.297936 -16.164604 14.543800 12.438800 -4.170720 2.000000 -2.000000 0.000000 86.714897 166.550003 1.237740 33.838200 -0.328407 0.076189 0.062837 -0.051341 -155.584000 -2.000000 2.000000 0.000000 32.486198 34.311401 156.962997 -52.754398 0.297595 0.108837 -0.057563 0.031704 -148.317993 -5.677284 1.589791 -2.842223 18.061462 3.490855 1.272309 -10.127141 -7.504717 -1.876805 -1.290410 8.255726 -6.148594 10.638391 -2.305016 -1.026811 -8.761406 -13.282079 -3.519158 
0.087940 44.538715 0.255675 1.273750 -4.666820 11.741600 -21.072599 3.804430 1.245730 15.157600 3.188940 1.007830 18.668558 -8.466357 -16.244047 14.580900 12.369900 -4.213590 2.000000 -2.000000 0.000000 86.900597 166.695999 1.413860 33.789398 -0.328472 0.076092 0.062845 -0.051366 -155.593994 -2.000000 2.000000 0.000000 32.912300 35.042702 152.960999 -53.867699 0.295465 0.110425 -0.061461 0.047072 -153.981995 -5.615906 1.640009 -2.982469 18.206123 3.512731 1.264631 -10.288253 -7.697159 -1.949655 -1.145422 8.319283 -6.368452 10.665373 -2.315078 -1.007643 -8.822012 -13.376239 -3.539224 
0.091912 44.521885 0.303410 1.058150 -4.637880 11.964700 -21.033199 3.815480 1.275150 15.255200 3.228350 1.029200 18.859560 -8.696497 -16.346561 14.712800 12.412500 -4.206860 2.000000 -2.000000 0.000000 87.017799 166.705002 1.609190 34.072601 -0.328095 0.076653 0.063048 -0.051962 -155.817993 -2.000000 2.000000 0.000000 32.577400 36.917099 148.584000 -53.730999 0.295728 0.110232 -0.075924 0.060286 -158.992004 -5.405020 1.645573 -3.024127 18.324787 3.516198 1.264086 -10.423187 -7.838192 -2.018471 -0.923302 8.378548 -6.314007 10.806213 -2.360705 -1.027960 -9.035281 -13.581283 -3.612372 
0.095884 44.504925 0.351148 0.852354 -4.599100 12.186900 -20.994101 3.835640 1.301080 15.352800 3.267760 1.040930 19.054062 -8.925380 -16.431154 14.834800 12.455500 -4.209710 2.000000 -2.000000 0.000000 87.135002 166.723999 1.804550 34.355801 -0.327715 0.077212 0.063262 -0.052582 -156.052994 -2.000000 2.000000 0.000000 32.046101 38.761902 144.085999 -53.594200 0.295991 0.110039 -0.081744 0.073016 -163.992004 -5.259256 1.633862 -3.062269 18.507141 3.553688 1.278084 -10.542360 -7.971818 -2.071493 -0.630253 8.422207 -6.270205 10.801336 -2.379464 -1.010149 -9.163928 -13.790838 -3.686949 
0.098727 44.496048 0.383710 0.695561 -4.560210 12.629600 -21.042101 3.814200 1.327370 15.333300 3.257930 1.060230 19.159134 -8.878361 -16.608627 14.816600 12.494700 -4.294670 2.000000 -2.000000 0.000000 87.242401 166.753006 2.019460 34.707401 -0.327239 0.077903 0.063478 -0.053202 -156.287003 -2.000000 2.000000 0.000000 30.937700 40.635601 139.578003 -52.744598 0.297613 0.108823 -0.085431 0.089585 -166.755997 -5.159608 1.633277 -3.195571 18.575296 3.563616 1.288787 -10.643353 -8.232969 -2.142594 -0.486924 8.489894 -6.264817 10.920429 -2.427285 -1.001935 -9.333175 -14.205169 -3.769165 
0.101568 44.487320 0.416270 0.538786 -4.521290 13.072100 -21.100000 3.792580 1.353220 15.313900 3.238380 1.070670 19.269627 -8.839595 -16.772915 14.798300 12.533900 -4.389430 2.000000 -2.000000 0.000000 87.359703 166.792007 2.234400 35.058998 -0.326760 0.078591 0.063697 -0.053821 -156.520996 -2.000000 2.000000 0.000000 29.603201 42.440701 134.876999 -51.895000 0.299218 0.107584 -0.079691 0.096226 -169.529007 -5.056274 1.641740 -3.318977 18.689960 3.586476 1.281113 -10.782568 -8.479967 -2.244543 -0.280673 8.550064 -6.241681 10.936868 -2.443484 -1.002645 -9.420945 -14.631742 -3.858564 
0.091020 44.478836 0.427711 0.372365 -4.736230 13.503700 -21.167700 3.783330 1.384260 15.295200 3.053510 1.086530 19.477203 -8.866443 -16.945068 14.841300 12.599400 -4.427050 2.000000 -2.000000 0.000000 87.525703 166.860001 2.283380 35.332401 -0.326383 0.079124 0.063835 -0.054207 -156.667999 -2.000000 2.000000 0.000000 28.073700 44.381100 130.675003 -50.967300 0.300948 0.106204 -0.081215 0.088796 -170.524994 -5.139275 1.928971 -3.446952 18.986528 3.597446 1.290762 -10.900748 -8.713396 -2.315859 0.010212 8.872231 -6.178642 10.555466 -2.400412 -0.986422 -9.302150 -15.039670 -3.963035 
0.080473 44.470360 0.439153 0.215645 -4.941370 13.945500 -21.235500 3.774090 1.415360 15.286300 2.868700 1.112780 19.688740 -8.901420 -17.112753 14.893800 12.654800 -4.471850 2.000000 -2.000000 0.000000 87.691803 166.927994 2.332370 35.615601 -0.325991 0.079674 0.063974 -0.054593 -156.813995 -2.000000 2.000000 0.000000 26.288500 46.233299 126.255997 -50.039501 0.302657 0.104796 -0.082795 0.091129 -171.531006 -5.273780 2.191055 -3.582630 19.399294 3.631305 1.331921 -11.094237 -8.942229 -2.403543 0.132431 9.217107 -6.118966 10.497698 -2.432622 -0.980002 -9.309549 -15.471311 -4.022423 
0.089174 44.466625 0.458801 0.156835 -4.951150 14.311800 -21.448299 3.721230 1.497270 15.052400 2.712070 1.145300 19.875031 -8.954143 -17.275198 14.926900 12.720600 -4.540720 2.000000 -2.000000 0.000000 87.779602 166.751999 2.253840 35.849998 -0.325665 0.080128 0.063956 -0.054541 -156.794998 -2.000000 2.000000 0.000000 24.614000 47.750702 123.524002 -49.707500 0.303262 0.104285 -0.082469 0.090655 -171.326004 -5.272346 2.189960 -3.670612 19.409269 3.631075 1.331795 -11.116978 -9.087436 -2.444813 0.341431 9.233412 -6.263223 10.204049 -2.356917 -0.969892 -9.196111 -15.604356 -4.111108 
0.097876 44.462898 0.478452 0.088221 -4.960930 14.688800 -21.651501 3.674370 1.567460 14.818500 2.555510 1.179100 20.050640 -9.009948 -17.444765 14.959500 12.776800 -4.601570 2.000000 -2.000000 0.000000 87.857597 166.576996 2.175300 36.094101 -0.325323 0.080600 0.063937 -0.054490 -156.774994 -2.000000 2.000000 0.000000 22.782101 49.199699 120.627998 -49.365700 0.303883 0.103756 -0.082161 0.090204 -171.130997 -5.277916 2.200161 -3.768285 19.407974 3.638284 1.332995 -11.127948 -9.226959 -2.493429 0.308266 9.284799 -6.449358 10.410464 -2.416208 -0.961149 -9.318803 -15.782154 -4.120471 
0.109698 44.466244 0.497591 0.000000 -5.009770 14.902300 -22.252600 3.544830 1.725060 13.930900 2.143800 1.235590 20.228848 -9.329170 -17.516315 14.940400 12.796900 -4.660880 2.000000 -2.000000 0.000000 88.140198 165.552002 1.938560 36.435902 -0.324840 0.081257 0.064021 -0.054721 -156.863007 -2.000000 2.000000 0.000000 22.343399 50.411400 120.024002 -49.600101 0.303458 0.104119 -0.079603 0.096087 -169.470001 -5.215955 2.287109 -3.819564 19.419357 3.632478 1.341653 -11.190472 -9.339866 -2.522336 0.501590 9.380023 -6.511248 10.197441 -2.423451 -0.945737 -9.249649 -15.844389 -4.129109 
0.121519 44.469582 0.516727 -0.088236 -5.068350 15.125000 -22.853600 3.412980 1.876450 13.043500 1.723370 1.296290 20.405487 -9.638915 -17.585987 14.921300 12.816900 -4.710440 2.000000 -2.000000 0.000000 88.412903 164.526993 1.701820 36.787498 -0.324340 0.081931 0.064105 -0.054953 -156.951004 -2.000000 2.000000 0.000000 21.865601 51.623100 119.389000 -49.834499 0.303031 0.104481 -0.086910 0.092110 -167.800995 -5.168333 2.356198 -3.850437 19.466825 3.644694 1.343326 -11.287163 -9.446337 -2.584823 0.661947 9.461097 -6.560226 10.028696 -2.413918 -0.937905 -9.204904 -15.931983 -4.130875 
0.127773 44.468941 0.533228 -0.156892 -5.185530 15.180100 -22.579300 3.478980 1.967830 13.649400 1.667500 1.360610 20.351824 -9.325114 -17.617811 14.821700 12.830900 -4.740090 2.000000 -2.000000 0.000000 88.130203 165.289993 1.059040 36.426201 -0.324854 0.081239 0.064077 -0.054876 -156.921997 -2.000000 2.000000 0.000000 19.747801 53.284199 118.599998 -50.254398 0.302263 0.105124 -0.083973 0.077220 -165.690994 -5.205791 2.468011 -3.866505 19.607101 3.686400 1.319353 -11.337348 -9.432908 -2.582673 0.778083 9.629598 -6.481415 9.925853 -2.460262 -0.913794 -9.206234 -16.016132 -4.106675 
0.134027 44.468422 0.549732 -0.225571 -5.292930 15.235600 -22.295000 3.532740 2.054460 14.245500 1.620980 1.432150 20.306696 -9.008521 -17.660822 14.732000 12.844300 -4.777380 2.000000 -2.000000 0.000000 87.857201 166.044006 0.426017 36.074600 -0.325350 0.080562 0.064040 -0.054773 -156.882996 -2.000000 2.000000 0.000000 17.512501 54.935600 117.664001 -50.674301 0.301490 0.105762 -0.081238 0.072016 -163.591995 -5.178001 2.602432 -3.895317 19.696123 3.690817 1.329186 -11.405910 -9.405543 -2.597188 0.957624 9.800954 -6.362360 9.674683 -2.457093 -0.907932 -9.151832 -16.097731 -4.106563 
